<svg width="16" height="16" viewBox="0 0 16 16" fill="none" xmlns="http://www.w3.org/2000/svg">
<path d="M4.92666 11.026C4.00097 10.3732 3.30716 9.44263 2.94575 8.36911C2.58434 7.2956 2.5741 6.13489 2.91652 5.05517C3.25894 3.97545 3.93624 3.03279 4.85027 2.36377C5.76431 1.69474 6.86761 1.33411 8.00033 1.33411C9.13304 1.33411 10.2363 1.69474 11.1504 2.36377C12.0644 3.03279 12.7417 3.97545 13.0841 5.05517C13.4265 6.13489 13.4163 7.2956 13.0549 8.36911C12.6935 9.44263 11.9997 10.3732 11.074 11.026L12.4627 14.1993C12.485 14.2501 12.4942 14.3057 12.4896 14.361C12.485 14.4163 12.4667 14.4695 12.4363 14.5159C12.4059 14.5623 12.3644 14.6004 12.3156 14.6268C12.2668 14.6531 12.2121 14.6668 12.1567 14.6667H3.84333C3.78794 14.6667 3.7334 14.653 3.68464 14.6267C3.63589 14.6005 3.59445 14.5624 3.56408 14.5161C3.53371 14.4698 3.51536 14.4166 3.51068 14.3614C3.50601 14.3062 3.51517 14.2508 3.53733 14.2L4.92599 11.026H4.92666ZM9.41666 10.564L10.3047 9.93666C10.9991 9.4472 11.5197 8.74932 11.791 7.94415C12.0622 7.13898 12.0701 6.26835 11.8133 5.45843C11.5566 4.64852 11.0487 3.94138 10.3631 3.43951C9.67753 2.93764 8.84996 2.6671 8.00033 2.6671C7.15069 2.6671 6.32313 2.93764 5.63756 3.43951C4.95199 3.94138 4.44404 4.64852 4.1873 5.45843C3.93057 6.26835 3.9384 7.13898 4.20966 7.94415C4.48092 8.74932 5.00151 9.4472 5.69599 9.93666L6.58333 10.564L5.37199 13.3333H10.628L9.41666 10.564ZM5.41266 7.31333L6.70599 6.99C6.77777 7.27891 6.94416 7.53549 7.17867 7.71886C7.41317 7.90224 7.7023 8.00186 7.99999 8.00186C8.29768 8.00186 8.58681 7.90224 8.82132 7.71886C9.05583 7.53549 9.22222 7.27891 9.29399 6.99L10.5873 7.31333C10.4423 7.88966 10.109 8.40106 9.64028 8.76644C9.17157 9.13181 8.59429 9.33023 7.99999 9.33023C7.4057 9.33023 6.82841 9.13181 6.3597 8.76644C5.89099 8.40106 5.55769 7.88966 5.41266 7.31333Z" fill="#323232"/>
</svg>
