<svg width="24" height="25" viewBox="0 0 24 25" fill="none" xmlns="http://www.w3.org/2000/svg">
<g clip-path="url(#clip0)">
<path d="M18.9501 15.4009C18.4791 14.378 16.794 12.9582 15.1661 11.5863C14.2581 10.8217 13.4001 10.0988 12.8531 9.52901C12.7161 9.38526 12.5111 9.33941 12.3301 9.40713C11.9931 9.53423 11.7851 9.63213 11.6211 9.70816C11.3711 9.82481 11.2871 9.86441 10.9501 9.89981C10.8011 9.91543 10.6671 9.99878 10.5841 10.1279C9.87707 11.229 9.14507 11.1352 8.65607 10.9644C8.50007 10.9103 8.47209 10.8404 8.45709 10.7738C8.35209 10.3165 8.87911 9.25191 9.56207 8.54043C11.1871 6.84668 12.0251 6.42271 13.7951 7.24668C15.8031 8.18208 17.8151 8.91441 17.8351 8.92168C18.0981 9.01646 18.3811 8.87271 18.4721 8.60083C18.5621 8.32896 18.4251 8.03208 18.1641 7.93731C18.144 7.93003 16.1721 7.21231 14.2041 6.29458C11.9111 5.22686 10.653 5.92998 8.85604 7.80293C8.17204 8.51543 7.24303 9.95708 7.48303 11.0144C7.58601 11.4644 7.89004 11.7978 8.34201 11.9529C9.47503 12.3425 10.509 11.9696 11.279 10.905C11.597 10.854 11.77 10.779 12.03 10.6571C12.124 10.6134 12.234 10.5624 12.38 10.5009C12.952 11.0603 13.724 11.7113 14.537 12.3957C16.007 13.6342 17.674 15.0384 18.049 15.8509C18.234 16.2519 18.035 16.5134 17.9 16.6332C17.702 16.8103 17.431 16.8665 17.284 16.7592C17.122 16.6436 16.911 16.6363 16.744 16.7404C16.576 16.8446 16.482 17.0415 16.503 17.2436C16.537 17.5748 16.246 17.7644 16.12 17.83C15.8 17.9988 15.466 17.9696 15.341 17.8488C15.201 17.7134 15 17.6738 14.822 17.7425C14.644 17.8123 14.52 17.9832 14.502 18.1811C14.472 18.5227 14.229 18.8508 13.912 18.979C13.759 19.0394 13.537 19.0758 13.338 18.8862C13.214 18.7696 13.042 18.7248 12.881 18.7654C12.718 18.807 12.587 18.93 12.53 19.0935C12.511 19.1456 12.468 19.2706 12 19.2706C11.667 19.2706 11.068 19.0362 10.775 18.8341C10.424 18.5935 8.223 16.8831 6.32203 15.2248C6.05503 14.9904 5.59303 14.4883 5.18503 14.0445C4.82301 13.6508 4.49203 13.2935 4.32201 13.1435C4.10901 12.956 3.79401 12.9841 3.61701 13.205C3.43903 13.4248 3.465 13.754 3.67603 13.9394C3.83104 14.0758 4.13104 14.406 4.46203 14.7654C4.90804 15.2508 5.36901 15.7529 5.67904 16.0237C7.54106 17.6477 9.77906 19.4008 10.225 19.706C10.593 19.9581 11.386 20.3123 12 20.3123C12.493 20.3123 12.8721 20.1945 13.135 19.9644C13.487 20.1071 13.887 20.1081 14.272 19.9519C14.727 19.7685 15.101 19.3987 15.313 18.9508C15.707 19.0383 16.158 18.9769 16.568 18.7623C16.969 18.5519 17.259 18.23 17.403 17.854C17.801 17.8758 18.211 17.729 18.55 17.4258C19.1241 16.9144 19.282 16.1186 18.9501 15.4009Z" fill="#1C5C84"/>
<path d="M10 6.77065H5.50002C5.22402 6.77065 5 7.004 5 7.2915C5 7.579 5.22402 7.81235 5.50002 7.81235H10C10.276 7.81235 10.5 7.579 10.5 7.2915C10.5 7.004 10.276 6.77065 10 6.77065Z" fill="#1C5C84"/>
<path d="M20.415 14.2925C20.2599 14.054 19.95 13.9884 19.721 14.1509L18.259 15.1738C18.03 15.3342 17.969 15.6581 18.123 15.8967C18.22 16.0456 18.378 16.1269 18.539 16.1269C18.634 16.1269 18.731 16.0988 18.817 16.0384L20.279 15.0155C20.508 14.855 20.5689 14.5311 20.415 14.2925Z" fill="#1C5C84"/>
<path d="M17.311 16.778C16.953 16.4842 15.352 14.777 14.362 13.702C14.171 13.4936 13.854 13.4863 13.655 13.6863C13.455 13.8853 13.449 14.2155 13.64 14.4228C13.897 14.702 16.164 17.1634 16.691 17.5968C16.782 17.6718 16.892 17.7083 17 17.7083C17.147 17.7083 17.294 17.6395 17.394 17.5093C17.565 17.2842 17.528 16.9561 17.311 16.778Z" fill="#1C5C84"/>
<path d="M15.313 17.8227C14.714 17.3238 13.209 15.6582 12.869 15.2728C12.681 15.0603 12.366 15.0478 12.162 15.2415C11.9589 15.4363 11.945 15.7665 12.132 15.978C12.15 15.9978 13.946 18.0176 14.688 18.6363C14.78 18.7123 14.891 18.7498 15 18.7498C15.146 18.7498 15.2919 18.6821 15.3909 18.5551C15.563 18.33 15.528 18.0019 15.313 17.8227Z" fill="#1C5C84"/>
<path d="M13.323 18.8717C12.61 18.2457 11.151 16.628 10.866 16.3103C10.677 16.0999 10.36 16.0884 10.159 16.2853C9.95703 16.4821 9.947 16.8113 10.135 17.0217C10.545 17.479 11.941 19.0207 12.678 19.6686C12.772 19.7509 12.886 19.7915 13 19.7915C13.142 19.7915 13.284 19.728 13.383 19.6061C13.561 19.3853 13.534 19.0571 13.323 18.8717Z" fill="#1C5C84"/>
<path d="M5.844 5.87173C4.98698 5.02588 1.56 4.7519 0.530016 4.68838C0.388031 4.6811 0.257016 4.73003 0.157031 4.829C0.057 4.9269 0 5.0644 0 5.20815V14.5832C0 14.8707 0.224016 15.104 0.500016 15.104H3.50002C3.71602 15.104 3.90802 14.9592 3.975 14.7446C4.04798 14.5113 5.77102 9.00298 5.99798 6.29463C6.01102 6.13628 5.955 5.98003 5.844 5.87173ZM3.135 14.0624H0.999984V5.7665C2.607 5.89878 4.341 6.18628 4.971 6.50503C4.70602 8.78628 3.507 12.8394 3.135 14.0624Z" fill="#1C5C84"/>
<path d="M23.5 5.729C19.574 5.729 17.396 6.77588 17.305 6.81963C17.175 6.88315 17.078 7.00088 17.038 7.1436C16.998 7.28633 17.018 7.43945 17.093 7.5665C17.711 8.60298 19.646 14.3592 20.018 15.7634C20.078 15.9894 20.275 16.1457 20.5 16.1457H23.5C23.776 16.1457 24 15.9123 24 15.6248V6.2498C24 5.96128 23.776 5.729 23.5 5.729ZM23 15.104H20.874C20.4 13.4957 19 9.3019 18.219 7.5686C18.982 7.29883 20.621 6.83525 23 6.77695V15.104Z" fill="#1C5C84"/>
</g>
<defs>
<clipPath id="clip0">
<rect width="24" height="25" fill="white"/>
</clipPath>
</defs>
</svg>
