<svg width="16" height="16" viewBox="0 0 16 16" fill="none" xmlns="http://www.w3.org/2000/svg">
<path d="M7.99984 1.33333C6.59454 1.33326 5.24601 1.88783 4.24733 2.87652C3.24866 3.86521 2.68056 5.2081 2.6665 6.61333C2.6665 10.2667 7.3665 14.3333 7.5665 14.5067C7.68726 14.6099 7.84094 14.6667 7.99984 14.6667C8.15874 14.6667 8.31242 14.6099 8.43317 14.5067C8.6665 14.3333 13.3332 10.2667 13.3332 6.61333C13.3191 5.2081 12.751 3.86521 11.7523 2.87652C10.7537 1.88783 9.40513 1.33326 7.99984 1.33333ZM7.99984 13.1C6.8865 12.04 3.99984 9.1 3.99984 6.61333C3.99984 5.55246 4.42126 4.53505 5.17141 3.7849C5.92156 3.03476 6.93897 2.61333 7.99984 2.61333C9.0607 2.61333 10.0781 3.03476 10.8283 3.7849C11.5784 4.53505 11.9998 5.55246 11.9998 6.61333C11.9998 9.08 9.11317 12.04 7.99984 13.1Z" fill="#323232"/>
<path d="M7.99984 4C7.53835 4 7.08722 4.13685 6.70351 4.39324C6.31979 4.64963 6.02072 5.01404 5.84412 5.44041C5.66751 5.86677 5.62131 6.33592 5.71134 6.78854C5.80137 7.24117 6.0236 7.65693 6.34992 7.98325C6.67625 8.30957 7.09201 8.5318 7.54463 8.62183C7.99725 8.71186 8.46641 8.66566 8.89277 8.48905C9.31913 8.31245 9.68355 8.01338 9.93993 7.62966C10.1963 7.24595 10.3332 6.79482 10.3332 6.33333C10.3332 5.71449 10.0873 5.121 9.64975 4.68342C9.21217 4.24583 8.61868 4 7.99984 4ZM7.99984 7.33333C7.80206 7.33333 7.60872 7.27468 7.44427 7.1648C7.27982 7.05492 7.15165 6.89874 7.07596 6.71602C7.00027 6.53329 6.98047 6.33222 7.01905 6.13824C7.05764 5.94426 7.15288 5.76608 7.29273 5.62623C7.43258 5.48637 7.61077 5.39113 7.80475 5.35255C7.99873 5.31396 8.1998 5.33377 8.38252 5.40945C8.56525 5.48514 8.72143 5.61331 8.83131 5.77776C8.94119 5.94221 8.99984 6.13555 8.99984 6.33333C8.99984 6.59855 8.89448 6.8529 8.70695 7.04044C8.51941 7.22798 8.26506 7.33333 7.99984 7.33333Z" fill="#323232"/>
</svg>
