<svg width="16" height="16" viewBox="0 0 16 16" fill="none" xmlns="http://www.w3.org/2000/svg">
<path d="M12.6667 6.66668H13.3333C13.5101 6.66668 13.6797 6.73692 13.8047 6.86194C13.9298 6.98696 14 7.15653 14 7.33334V14C14 14.1768 13.9298 14.3464 13.8047 14.4714C13.6797 14.5964 13.5101 14.6667 13.3333 14.6667H2.66667C2.48986 14.6667 2.32029 14.5964 2.19526 14.4714C2.07024 14.3464 2 14.1768 2 14V7.33334C2 7.15653 2.07024 6.98696 2.19526 6.86194C2.32029 6.73692 2.48986 6.66668 2.66667 6.66668H3.33333V6.00001C3.33333 5.38718 3.45404 4.78034 3.68856 4.21415C3.92308 3.64797 4.26683 3.13352 4.70017 2.70018C5.13351 2.26684 5.64796 1.92309 6.21414 1.68857C6.78033 1.45405 7.38716 1.33334 8 1.33334C8.61284 1.33334 9.21967 1.45405 9.78586 1.68857C10.352 1.92309 10.8665 2.26684 11.2998 2.70018C11.7332 3.13352 12.0769 3.64797 12.3114 4.21415C12.546 4.78034 12.6667 5.38718 12.6667 6.00001V6.66668ZM3.33333 8.00001V13.3333H12.6667V8.00001H3.33333ZM7.33333 9.33334H8.66667V12H7.33333V9.33334ZM11.3333 6.66668V6.00001C11.3333 5.11596 10.9821 4.26811 10.357 3.64299C9.7319 3.01787 8.88406 2.66668 8 2.66668C7.11595 2.66668 6.2681 3.01787 5.64298 3.64299C5.01786 4.26811 4.66667 5.11596 4.66667 6.00001V6.66668H11.3333Z" fill="#323232"/>
</svg>
