<svg width="24" height="24" viewBox="0 0 24 24" fill="none" xmlns="http://www.w3.org/2000/svg">
<path d="M22.9636 11.3974L18.9747 5.59523C18.6185 5.07722 18.0553 4.74717 17.4293 4.68975C16.8028 4.63214 16.1893 4.85428 15.7449 5.29875L13.1903 7.85334L14.1847 8.8477L16.7393 6.29311C16.9421 6.09028 17.178 6.07884 17.3007 6.09014C17.4233 6.10139 17.6533 6.15558 17.8159 6.39197L21.2571 11.3974H12.7031V12.1983L12.7913 12.8037H11.2087L11.2969 12.1983V11.3974H2.74289L6.18412 6.39197C6.34669 6.15558 6.57666 6.10139 6.69928 6.09014C6.82195 6.07884 7.05787 6.09033 7.26075 6.29316L9.81534 8.84775L10.8097 7.85339L8.25511 5.2988C7.81069 4.85433 7.19662 4.63237 6.57075 4.6898C5.94478 4.74727 5.38148 5.07731 5.02533 5.59533L1.03641 11.3974H0V12.8036H1.03144L1.53516 16.3043C1.65553 17.1412 2.07375 17.907 2.7128 18.4606C3.35184 19.0143 4.16939 19.3192 5.01487 19.3192H7.21945C8.06494 19.3192 8.88253 19.0143 9.52153 18.4606C10.1605 17.907 10.5788 17.1412 10.699 16.3054L11.004 14.2098H12.9959L13.3007 16.3043C13.4211 17.1412 13.8393 17.907 14.4784 18.4606C15.1174 19.0142 15.935 19.3192 16.7805 19.3192H18.985C19.8305 19.3192 20.6481 19.0142 21.2871 18.4606C21.9261 17.907 22.3444 17.1412 22.4647 16.3043L22.9685 12.8036H24V11.3974H22.9636ZM9.30736 16.104C9.15895 17.1353 8.26139 17.913 7.2195 17.913H5.01492C3.97303 17.913 3.07547 17.1353 2.92706 16.104L2.45217 12.8036H9.78773L9.30736 16.104ZM21.073 16.104C20.9246 17.1353 20.027 17.913 18.9851 17.913H16.7805C15.7387 17.913 14.8411 17.1353 14.6925 16.1028L14.2123 12.8036H21.5479L21.073 16.104Z" fill="white" fill-opacity="0.45"/>
</svg>
